<mxfile host="app.diagrams.net" agent="Mozilla/5.0 (Windows NT 10.0; Win64; x64) AppleWebKit/537.36 (KHTML, like Gecko) Chrome/129.0.0.0 Safari/537.36 GLS/100.10.9766.98" version="24.8.0">
  <diagram name="Page-1" id="uEcrJ6mdZMf3yO1zMUEK">
    <mxGraphModel dx="2498" dy="1187" grid="1" gridSize="10" guides="1" tooltips="1" connect="1" arrows="1" fold="1" page="1" pageScale="1" pageWidth="850" pageHeight="1100" math="0" shadow="0">
      <root>
        <mxCell id="0" />
        <mxCell id="1" parent="0" />
        <mxCell id="DEw6KJjrD6QTIvw1O1RF-261" value="" style="group" parent="1" vertex="1" connectable="0">
          <mxGeometry x="180" y="330" width="560" height="560" as="geometry" />
        </mxCell>
        <mxCell id="DEw6KJjrD6QTIvw1O1RF-139" value="Login with credentials" style="rounded=0;whiteSpace=wrap;html=1;" parent="DEw6KJjrD6QTIvw1O1RF-261" vertex="1">
          <mxGeometry x="60" y="100" width="70" height="30" as="geometry" />
        </mxCell>
        <mxCell id="DEw6KJjrD6QTIvw1O1RF-147" value="" style="html=1;verticalAlign=bottom;startArrow=oval;startFill=1;endArrow=block;startSize=8;curved=0;rounded=0;fontSize=12;entryX=0.572;entryY=-0.007;entryDx=0;entryDy=0;entryPerimeter=0;" parent="DEw6KJjrD6QTIvw1O1RF-261" target="DEw6KJjrD6QTIvw1O1RF-139" edge="1">
          <mxGeometry width="60" relative="1" as="geometry">
            <mxPoint x="18" y="80" as="sourcePoint" />
            <mxPoint x="97" y="100" as="targetPoint" />
            <Array as="points">
              <mxPoint x="100" y="80" />
            </Array>
          </mxGeometry>
        </mxCell>
        <mxCell id="DEw6KJjrD6QTIvw1O1RF-148" value="" style="html=1;verticalAlign=bottom;endArrow=block;curved=0;rounded=0;fontSize=12;startSize=8;endSize=8;entryX=-0.004;entryY=0.673;entryDx=0;entryDy=0;entryPerimeter=0;exitX=0.997;exitY=0.667;exitDx=0;exitDy=0;exitPerimeter=0;" parent="DEw6KJjrD6QTIvw1O1RF-261" source="DEw6KJjrD6QTIvw1O1RF-139" target="DEw6KJjrD6QTIvw1O1RF-149" edge="1">
          <mxGeometry width="80" relative="1" as="geometry">
            <mxPoint x="130" y="114.82000000000005" as="sourcePoint" />
            <mxPoint x="210" y="114.82000000000005" as="targetPoint" />
          </mxGeometry>
        </mxCell>
        <mxCell id="DEw6KJjrD6QTIvw1O1RF-149" value="Verify credentials" style="rounded=0;whiteSpace=wrap;html=1;" parent="DEw6KJjrD6QTIvw1O1RF-261" vertex="1">
          <mxGeometry x="456.75" y="100" width="70" height="30" as="geometry" />
        </mxCell>
        <mxCell id="DEw6KJjrD6QTIvw1O1RF-153" value="" style="rhombus;whiteSpace=wrap;html=1;" parent="DEw6KJjrD6QTIvw1O1RF-261" vertex="1">
          <mxGeometry x="483.5" y="180" width="16.5" height="20" as="geometry" />
        </mxCell>
        <mxCell id="DEw6KJjrD6QTIvw1O1RF-154" value="" style="html=1;verticalAlign=bottom;endArrow=block;curved=0;rounded=0;fontSize=12;startSize=8;endSize=8;" parent="DEw6KJjrD6QTIvw1O1RF-261" source="DEw6KJjrD6QTIvw1O1RF-149" target="DEw6KJjrD6QTIvw1O1RF-153" edge="1">
          <mxGeometry width="80" relative="1" as="geometry">
            <mxPoint x="140" y="125" as="sourcePoint" />
            <mxPoint x="440" y="125" as="targetPoint" />
          </mxGeometry>
        </mxCell>
        <mxCell id="DEw6KJjrD6QTIvw1O1RF-155" value="Do they exist?" style="edgeLabel;html=1;align=center;verticalAlign=middle;resizable=0;points=[];fontSize=12;" parent="DEw6KJjrD6QTIvw1O1RF-154" vertex="1" connectable="0">
          <mxGeometry x="-0.293" y="1" relative="1" as="geometry">
            <mxPoint as="offset" />
          </mxGeometry>
        </mxCell>
        <mxCell id="DEw6KJjrD6QTIvw1O1RF-156" value="" style="html=1;verticalAlign=bottom;endArrow=block;curved=0;rounded=0;fontSize=12;startSize=8;endSize=8;" parent="DEw6KJjrD6QTIvw1O1RF-261" source="Vp__MtUCruuMja-UYaem-1" target="DEw6KJjrD6QTIvw1O1RF-160" edge="1">
          <mxGeometry width="80" relative="1" as="geometry">
            <mxPoint x="150" y="135" as="sourcePoint" />
            <mxPoint x="620" y="190" as="targetPoint" />
          </mxGeometry>
        </mxCell>
        <mxCell id="Vp__MtUCruuMja-UYaem-8" value="Not a user?" style="edgeLabel;html=1;align=center;verticalAlign=middle;resizable=0;points=[];fontSize=12;" parent="DEw6KJjrD6QTIvw1O1RF-156" vertex="1" connectable="0">
          <mxGeometry x="-0.462" y="-1" relative="1" as="geometry">
            <mxPoint as="offset" />
          </mxGeometry>
        </mxCell>
        <mxCell id="DEw6KJjrD6QTIvw1O1RF-160" value="Create a new User" style="rounded=0;whiteSpace=wrap;html=1;" parent="DEw6KJjrD6QTIvw1O1RF-261" vertex="1">
          <mxGeometry x="460" y="370" width="70" height="30" as="geometry" />
        </mxCell>
        <mxCell id="DEw6KJjrD6QTIvw1O1RF-162" value="Login successful" style="rounded=0;whiteSpace=wrap;html=1;" parent="DEw6KJjrD6QTIvw1O1RF-261" vertex="1">
          <mxGeometry x="30" y="175" width="70" height="30" as="geometry" />
        </mxCell>
        <mxCell id="DEw6KJjrD6QTIvw1O1RF-163" value="" style="endArrow=classic;html=1;rounded=0;fontSize=12;startSize=8;endSize=8;curved=1;" parent="DEw6KJjrD6QTIvw1O1RF-261" source="DEw6KJjrD6QTIvw1O1RF-176" target="DEw6KJjrD6QTIvw1O1RF-164" edge="1">
          <mxGeometry width="50" height="50" relative="1" as="geometry">
            <mxPoint x="70" y="440" as="sourcePoint" />
            <mxPoint x="-20" y="290" as="targetPoint" />
          </mxGeometry>
        </mxCell>
        <mxCell id="DEw6KJjrD6QTIvw1O1RF-179" value="yes" style="edgeLabel;html=1;align=center;verticalAlign=middle;resizable=0;points=[];fontSize=12;" parent="DEw6KJjrD6QTIvw1O1RF-163" vertex="1" connectable="0">
          <mxGeometry x="-0.2996" y="-1" relative="1" as="geometry">
            <mxPoint as="offset" />
          </mxGeometry>
        </mxCell>
        <mxCell id="DEw6KJjrD6QTIvw1O1RF-164" value="Request appointment" style="rounded=0;whiteSpace=wrap;html=1;" parent="DEw6KJjrD6QTIvw1O1RF-261" vertex="1">
          <mxGeometry x="110" y="380" width="70" height="30" as="geometry" />
        </mxCell>
        <mxCell id="DEw6KJjrD6QTIvw1O1RF-165" value="" style="endArrow=classic;html=1;rounded=0;fontSize=12;startSize=8;endSize=8;curved=1;" parent="DEw6KJjrD6QTIvw1O1RF-261" source="DEw6KJjrD6QTIvw1O1RF-164" target="DEw6KJjrD6QTIvw1O1RF-166" edge="1">
          <mxGeometry width="50" height="50" relative="1" as="geometry">
            <mxPoint x="105" y="215" as="sourcePoint" />
            <mxPoint x="-20" y="270" as="targetPoint" />
          </mxGeometry>
        </mxCell>
        <mxCell id="DEw6KJjrD6QTIvw1O1RF-166" value="Create new appointment" style="rounded=0;whiteSpace=wrap;html=1;" parent="DEw6KJjrD6QTIvw1O1RF-261" vertex="1">
          <mxGeometry x="245" y="380" width="70" height="30" as="geometry" />
        </mxCell>
        <mxCell id="DEw6KJjrD6QTIvw1O1RF-170" value="" style="html=1;verticalAlign=bottom;endArrow=block;curved=0;rounded=0;fontSize=12;startSize=8;endSize=8;" parent="DEw6KJjrD6QTIvw1O1RF-261" source="DEw6KJjrD6QTIvw1O1RF-160" target="DEw6KJjrD6QTIvw1O1RF-398" edge="1">
          <mxGeometry width="80" relative="1" as="geometry">
            <mxPoint x="475" y="340" as="sourcePoint" />
            <mxPoint x="416.5000000000001" y="385" as="targetPoint" />
          </mxGeometry>
        </mxCell>
        <mxCell id="DEw6KJjrD6QTIvw1O1RF-175" value="" style="html=1;verticalAlign=bottom;endArrow=block;curved=0;rounded=0;fontSize=12;startSize=8;endSize=8;" parent="DEw6KJjrD6QTIvw1O1RF-261" source="DEw6KJjrD6QTIvw1O1RF-398" target="DEw6KJjrD6QTIvw1O1RF-162" edge="1">
          <mxGeometry width="80" relative="1" as="geometry">
            <mxPoint x="408.5107223476298" y="245.3160270880361" as="sourcePoint" />
            <mxPoint x="406" y="265" as="targetPoint" />
            <Array as="points">
              <mxPoint x="410" y="190" />
            </Array>
          </mxGeometry>
        </mxCell>
        <mxCell id="DEw6KJjrD6QTIvw1O1RF-177" value="" style="endArrow=classic;html=1;rounded=0;fontSize=12;startSize=8;endSize=8;curved=1;" parent="DEw6KJjrD6QTIvw1O1RF-261" source="DEw6KJjrD6QTIvw1O1RF-162" target="DEw6KJjrD6QTIvw1O1RF-176" edge="1">
          <mxGeometry width="50" height="50" relative="1" as="geometry">
            <mxPoint x="95" y="205" as="sourcePoint" />
            <mxPoint x="95" y="360" as="targetPoint" />
          </mxGeometry>
        </mxCell>
        <mxCell id="DEw6KJjrD6QTIvw1O1RF-178" value="Make an appointment?" style="edgeLabel;html=1;align=center;verticalAlign=middle;resizable=0;points=[];fontSize=12;" parent="DEw6KJjrD6QTIvw1O1RF-177" vertex="1" connectable="0">
          <mxGeometry x="-0.2413" relative="1" as="geometry">
            <mxPoint as="offset" />
          </mxGeometry>
        </mxCell>
        <mxCell id="DEw6KJjrD6QTIvw1O1RF-176" value="" style="rhombus;whiteSpace=wrap;html=1;" parent="DEw6KJjrD6QTIvw1O1RF-261" vertex="1">
          <mxGeometry x="56.75" y="380" width="16.5" height="20" as="geometry" />
        </mxCell>
        <mxCell id="DEw6KJjrD6QTIvw1O1RF-181" value="Save appointment information" style="rounded=0;whiteSpace=wrap;html=1;" parent="DEw6KJjrD6QTIvw1O1RF-261" vertex="1">
          <mxGeometry x="430" y="420" width="70" height="40" as="geometry" />
        </mxCell>
        <mxCell id="DEw6KJjrD6QTIvw1O1RF-182" value="" style="html=1;verticalAlign=bottom;endArrow=block;curved=0;rounded=0;fontSize=12;startSize=8;endSize=8;" parent="DEw6KJjrD6QTIvw1O1RF-261" source="DEw6KJjrD6QTIvw1O1RF-166" target="DEw6KJjrD6QTIvw1O1RF-181" edge="1">
          <mxGeometry width="80" relative="1" as="geometry">
            <mxPoint x="399" y="385" as="sourcePoint" />
            <mxPoint x="110" y="330" as="targetPoint" />
            <Array as="points">
              <mxPoint x="280" y="440" />
            </Array>
          </mxGeometry>
        </mxCell>
        <mxCell id="DEw6KJjrD6QTIvw1O1RF-183" value="" style="endArrow=classic;html=1;rounded=0;fontSize=12;startSize=8;endSize=8;curved=1;" parent="DEw6KJjrD6QTIvw1O1RF-261" source="DEw6KJjrD6QTIvw1O1RF-186" target="DEw6KJjrD6QTIvw1O1RF-185" edge="1">
          <mxGeometry width="50" height="50" relative="1" as="geometry">
            <mxPoint x="83" y="405" as="sourcePoint" />
            <mxPoint x="-20" y="430" as="targetPoint" />
          </mxGeometry>
        </mxCell>
        <mxCell id="DEw6KJjrD6QTIvw1O1RF-189" value="yes" style="edgeLabel;html=1;align=center;verticalAlign=middle;resizable=0;points=[];fontSize=12;" parent="DEw6KJjrD6QTIvw1O1RF-183" vertex="1" connectable="0">
          <mxGeometry x="-0.2181" y="-1" relative="1" as="geometry">
            <mxPoint as="offset" />
          </mxGeometry>
        </mxCell>
        <mxCell id="DEw6KJjrD6QTIvw1O1RF-185" value="Request to pay" style="rounded=0;whiteSpace=wrap;html=1;" parent="DEw6KJjrD6QTIvw1O1RF-261" vertex="1">
          <mxGeometry x="110" y="475" width="70" height="30" as="geometry" />
        </mxCell>
        <mxCell id="DEw6KJjrD6QTIvw1O1RF-187" value="" style="endArrow=classic;html=1;rounded=0;fontSize=12;startSize=8;endSize=8;curved=1;" parent="DEw6KJjrD6QTIvw1O1RF-261" source="DEw6KJjrD6QTIvw1O1RF-176" target="DEw6KJjrD6QTIvw1O1RF-186" edge="1">
          <mxGeometry width="50" height="50" relative="1" as="geometry">
            <mxPoint x="65" y="275" as="sourcePoint" />
            <mxPoint x="65" y="360" as="targetPoint" />
          </mxGeometry>
        </mxCell>
        <mxCell id="DEw6KJjrD6QTIvw1O1RF-188" value="Pay a bill?" style="edgeLabel;html=1;align=center;verticalAlign=middle;resizable=0;points=[];fontSize=12;" parent="DEw6KJjrD6QTIvw1O1RF-187" vertex="1" connectable="0">
          <mxGeometry x="-0.2996" y="-1" relative="1" as="geometry">
            <mxPoint as="offset" />
          </mxGeometry>
        </mxCell>
        <mxCell id="DEw6KJjrD6QTIvw1O1RF-186" value="" style="rhombus;whiteSpace=wrap;html=1;" parent="DEw6KJjrD6QTIvw1O1RF-261" vertex="1">
          <mxGeometry x="56.75" y="480" width="16.5" height="20" as="geometry" />
        </mxCell>
        <mxCell id="DEw6KJjrD6QTIvw1O1RF-190" value="" style="endArrow=classic;html=1;rounded=0;fontSize=12;startSize=8;endSize=8;curved=1;" parent="DEw6KJjrD6QTIvw1O1RF-261" source="DEw6KJjrD6QTIvw1O1RF-186" target="DEw6KJjrD6QTIvw1O1RF-192" edge="1">
          <mxGeometry width="50" height="50" relative="1" as="geometry">
            <mxPoint x="64.85" y="350" as="sourcePoint" />
            <mxPoint x="64.85" y="405" as="targetPoint" />
          </mxGeometry>
        </mxCell>
        <mxCell id="DEw6KJjrD6QTIvw1O1RF-191" value="no" style="edgeLabel;html=1;align=center;verticalAlign=middle;resizable=0;points=[];fontSize=12;" parent="DEw6KJjrD6QTIvw1O1RF-190" vertex="1" connectable="0">
          <mxGeometry x="-0.2996" y="-1" relative="1" as="geometry">
            <mxPoint as="offset" />
          </mxGeometry>
        </mxCell>
        <mxCell id="DEw6KJjrD6QTIvw1O1RF-192" value="End session" style="rounded=0;whiteSpace=wrap;html=1;" parent="DEw6KJjrD6QTIvw1O1RF-261" vertex="1">
          <mxGeometry x="30" y="620" width="70" height="30" as="geometry" />
        </mxCell>
        <mxCell id="DEw6KJjrD6QTIvw1O1RF-194" value="" style="endArrow=classic;html=1;rounded=0;fontSize=12;startSize=8;endSize=8;curved=1;" parent="DEw6KJjrD6QTIvw1O1RF-261" source="DEw6KJjrD6QTIvw1O1RF-192" target="DEw6KJjrD6QTIvw1O1RF-197" edge="1">
          <mxGeometry width="50" height="50" relative="1" as="geometry">
            <mxPoint x="109.69999999999999" y="540" as="sourcePoint" />
            <mxPoint x="-40" y="580" as="targetPoint" />
          </mxGeometry>
        </mxCell>
        <mxCell id="DEw6KJjrD6QTIvw1O1RF-197" value="" style="ellipse;whiteSpace=wrap;html=1;aspect=fixed;fillColor=#f8cecc;strokeColor=#b85450;" parent="DEw6KJjrD6QTIvw1O1RF-261" vertex="1">
          <mxGeometry x="55" y="670" width="20" height="20" as="geometry" />
        </mxCell>
        <mxCell id="DEw6KJjrD6QTIvw1O1RF-201" value="" style="endArrow=classic;html=1;rounded=0;fontSize=12;startSize=8;endSize=8;curved=1;" parent="DEw6KJjrD6QTIvw1O1RF-261" source="DEw6KJjrD6QTIvw1O1RF-185" target="DEw6KJjrD6QTIvw1O1RF-203" edge="1">
          <mxGeometry width="50" height="50" relative="1" as="geometry">
            <mxPoint x="220" y="490" as="sourcePoint" />
            <mxPoint x="-60" y="490" as="targetPoint" />
          </mxGeometry>
        </mxCell>
        <mxCell id="DEw6KJjrD6QTIvw1O1RF-203" value="Change bill info" style="rounded=0;whiteSpace=wrap;html=1;" parent="DEw6KJjrD6QTIvw1O1RF-261" vertex="1">
          <mxGeometry x="245" y="475" width="70" height="30" as="geometry" />
        </mxCell>
        <mxCell id="DEw6KJjrD6QTIvw1O1RF-205" value="" style="html=1;verticalAlign=bottom;endArrow=block;curved=0;rounded=0;fontSize=12;startSize=8;endSize=8;entryX=-0.003;entryY=0.333;entryDx=0;entryDy=0;entryPerimeter=0;" parent="DEw6KJjrD6QTIvw1O1RF-261" source="DEw6KJjrD6QTIvw1O1RF-203" target="DEw6KJjrD6QTIvw1O1RF-206" edge="1">
          <mxGeometry width="80" relative="1" as="geometry">
            <mxPoint x="399" y="385" as="sourcePoint" />
            <mxPoint x="620" y="600" as="targetPoint" />
            <Array as="points">
              <mxPoint x="280" y="540" />
            </Array>
          </mxGeometry>
        </mxCell>
        <mxCell id="DEw6KJjrD6QTIvw1O1RF-206" value="Update bill info to paid" style="rounded=0;whiteSpace=wrap;html=1;" parent="DEw6KJjrD6QTIvw1O1RF-261" vertex="1">
          <mxGeometry x="430" y="530" width="70" height="30" as="geometry" />
        </mxCell>
        <mxCell id="DEw6KJjrD6QTIvw1O1RF-207" value="" style="html=1;verticalAlign=bottom;endArrow=block;curved=0;rounded=0;fontSize=12;startSize=8;endSize=8;" parent="DEw6KJjrD6QTIvw1O1RF-261" source="DEw6KJjrD6QTIvw1O1RF-206" target="DEw6KJjrD6QTIvw1O1RF-176" edge="1">
          <mxGeometry width="80" relative="1" as="geometry">
            <mxPoint x="290" y="515" as="sourcePoint" />
            <mxPoint x="-20" y="400" as="targetPoint" />
            <Array as="points">
              <mxPoint x="465" y="590" />
              <mxPoint x="30" y="590" />
              <mxPoint x="30" y="390" />
            </Array>
          </mxGeometry>
        </mxCell>
        <mxCell id="DEw6KJjrD6QTIvw1O1RF-208" value="" style="html=1;verticalAlign=bottom;endArrow=block;curved=0;rounded=0;fontSize=12;startSize=8;endSize=8;" parent="DEw6KJjrD6QTIvw1O1RF-261" source="DEw6KJjrD6QTIvw1O1RF-181" target="DEw6KJjrD6QTIvw1O1RF-176" edge="1">
          <mxGeometry width="80" relative="1" as="geometry">
            <mxPoint x="475" y="570" as="sourcePoint" />
            <mxPoint x="68" y="404" as="targetPoint" />
            <Array as="points">
              <mxPoint x="530" y="440" />
              <mxPoint x="530" y="590" />
              <mxPoint x="30" y="590" />
              <mxPoint x="30" y="390" />
            </Array>
          </mxGeometry>
        </mxCell>
        <mxCell id="DEw6KJjrD6QTIvw1O1RF-157" value="" style="html=1;verticalAlign=bottom;endArrow=block;curved=0;rounded=0;fontSize=12;startSize=8;endSize=8;" parent="DEw6KJjrD6QTIvw1O1RF-261" source="DEw6KJjrD6QTIvw1O1RF-153" target="DEw6KJjrD6QTIvw1O1RF-162" edge="1">
          <mxGeometry width="80" relative="1" as="geometry">
            <mxPoint x="483" y="200" as="sourcePoint" />
            <mxPoint x="660.4255319148937" y="160" as="targetPoint" />
          </mxGeometry>
        </mxCell>
        <mxCell id="DEw6KJjrD6QTIvw1O1RF-158" value="yes" style="edgeLabel;html=1;align=center;verticalAlign=middle;resizable=0;points=[];fontSize=12;" parent="DEw6KJjrD6QTIvw1O1RF-157" vertex="1" connectable="0">
          <mxGeometry x="0.0962" y="-1" relative="1" as="geometry">
            <mxPoint x="155" y="1" as="offset" />
          </mxGeometry>
        </mxCell>
        <mxCell id="DEw6KJjrD6QTIvw1O1RF-398" value="" style="rhombus;whiteSpace=wrap;html=1;" parent="DEw6KJjrD6QTIvw1O1RF-261" vertex="1">
          <mxGeometry x="400" y="375" width="16.5" height="20" as="geometry" />
        </mxCell>
        <mxCell id="Vp__MtUCruuMja-UYaem-1" value="" style="rhombus;whiteSpace=wrap;html=1;" parent="DEw6KJjrD6QTIvw1O1RF-261" vertex="1">
          <mxGeometry x="483.5" y="270" width="16.5" height="20" as="geometry" />
        </mxCell>
        <mxCell id="Vp__MtUCruuMja-UYaem-2" value="" style="html=1;verticalAlign=bottom;endArrow=block;curved=0;rounded=0;fontSize=12;startSize=8;endSize=8;" parent="DEw6KJjrD6QTIvw1O1RF-261" source="DEw6KJjrD6QTIvw1O1RF-153" target="Vp__MtUCruuMja-UYaem-1" edge="1">
          <mxGeometry width="80" relative="1" as="geometry">
            <mxPoint x="602" y="680" as="sourcePoint" />
            <mxPoint x="605" y="850" as="targetPoint" />
          </mxGeometry>
        </mxCell>
        <mxCell id="Vp__MtUCruuMja-UYaem-4" value="Entered wrong&amp;nbsp;&lt;div&gt;credentials?&lt;/div&gt;" style="edgeLabel;html=1;align=center;verticalAlign=middle;resizable=0;points=[];fontSize=12;" parent="Vp__MtUCruuMja-UYaem-2" vertex="1" connectable="0">
          <mxGeometry x="0.1062" y="-1" relative="1" as="geometry">
            <mxPoint x="1" y="-4" as="offset" />
          </mxGeometry>
        </mxCell>
        <mxCell id="Vp__MtUCruuMja-UYaem-5" value="" style="html=1;verticalAlign=bottom;endArrow=block;curved=0;rounded=0;fontSize=12;startSize=8;endSize=8;entryX=-0.005;entryY=0.682;entryDx=0;entryDy=0;entryPerimeter=0;" parent="DEw6KJjrD6QTIvw1O1RF-261" source="Vp__MtUCruuMja-UYaem-1" target="DEw6KJjrD6QTIvw1O1RF-149" edge="1">
          <mxGeometry width="80" relative="1" as="geometry">
            <mxPoint x="470" y="395" as="sourcePoint" />
            <mxPoint x="630" y="210" as="targetPoint" />
            <Array as="points">
              <mxPoint x="380" y="280" />
              <mxPoint x="380" y="120" />
            </Array>
          </mxGeometry>
        </mxCell>
        <mxCell id="Vp__MtUCruuMja-UYaem-7" value="Try again" style="edgeLabel;html=1;align=center;verticalAlign=middle;resizable=0;points=[];fontSize=12;" parent="Vp__MtUCruuMja-UYaem-5" vertex="1" connectable="0">
          <mxGeometry x="-0.7648" y="-1" relative="1" as="geometry">
            <mxPoint as="offset" />
          </mxGeometry>
        </mxCell>
        <mxCell id="DEw6KJjrD6QTIvw1O1RF-339" value="" style="group" parent="1" vertex="1" connectable="0">
          <mxGeometry x="950" y="460" width="560" height="560" as="geometry" />
        </mxCell>
        <mxCell id="DEw6KJjrD6QTIvw1O1RF-262" value="" style="group" parent="DEw6KJjrD6QTIvw1O1RF-339" vertex="1" connectable="0">
          <mxGeometry width="560" height="560" as="geometry" />
        </mxCell>
        <mxCell id="DEw6KJjrD6QTIvw1O1RF-209" value="Login to interact with the system as a Dentist" style="shape=table;startSize=30;container=1;collapsible=0;childLayout=tableLayout;strokeColor=default;fontSize=16;" parent="DEw6KJjrD6QTIvw1O1RF-262" vertex="1">
          <mxGeometry width="560" height="580" as="geometry" />
        </mxCell>
        <mxCell id="DEw6KJjrD6QTIvw1O1RF-210" value="" style="shape=tableRow;horizontal=0;startSize=0;swimlaneHead=0;swimlaneBody=0;strokeColor=inherit;top=0;left=0;bottom=0;right=0;collapsible=0;dropTarget=0;fillColor=none;points=[[0,0.5],[1,0.5]];portConstraint=eastwest;fontSize=16;" parent="DEw6KJjrD6QTIvw1O1RF-209" vertex="1">
          <mxGeometry y="30" width="560" height="40" as="geometry" />
        </mxCell>
        <mxCell id="DEw6KJjrD6QTIvw1O1RF-211" value="Dentist" style="shape=partialRectangle;html=1;whiteSpace=wrap;connectable=0;strokeColor=inherit;overflow=hidden;fillColor=none;top=0;left=0;bottom=0;right=0;pointerEvents=1;fontSize=16;" parent="DEw6KJjrD6QTIvw1O1RF-210" vertex="1">
          <mxGeometry width="187" height="40" as="geometry">
            <mxRectangle width="187" height="40" as="alternateBounds" />
          </mxGeometry>
        </mxCell>
        <mxCell id="DEw6KJjrD6QTIvw1O1RF-212" value="System" style="shape=partialRectangle;html=1;whiteSpace=wrap;connectable=0;strokeColor=inherit;overflow=hidden;fillColor=none;top=0;left=0;bottom=0;right=0;pointerEvents=1;fontSize=16;" parent="DEw6KJjrD6QTIvw1O1RF-210" vertex="1">
          <mxGeometry x="187" width="186" height="40" as="geometry">
            <mxRectangle width="186" height="40" as="alternateBounds" />
          </mxGeometry>
        </mxCell>
        <mxCell id="DEw6KJjrD6QTIvw1O1RF-213" value="Database" style="shape=partialRectangle;html=1;whiteSpace=wrap;connectable=0;strokeColor=inherit;overflow=hidden;fillColor=none;top=0;left=0;bottom=0;right=0;pointerEvents=1;fontSize=16;" parent="DEw6KJjrD6QTIvw1O1RF-210" vertex="1">
          <mxGeometry x="373" width="187" height="40" as="geometry">
            <mxRectangle width="187" height="40" as="alternateBounds" />
          </mxGeometry>
        </mxCell>
        <mxCell id="DEw6KJjrD6QTIvw1O1RF-214" value="" style="shape=tableRow;horizontal=0;startSize=0;swimlaneHead=0;swimlaneBody=0;strokeColor=inherit;top=0;left=0;bottom=0;right=0;collapsible=0;dropTarget=0;fillColor=none;points=[[0,0.5],[1,0.5]];portConstraint=eastwest;fontSize=16;" parent="DEw6KJjrD6QTIvw1O1RF-209" vertex="1">
          <mxGeometry y="70" width="560" height="510" as="geometry" />
        </mxCell>
        <mxCell id="DEw6KJjrD6QTIvw1O1RF-215" value="" style="shape=partialRectangle;html=1;whiteSpace=wrap;connectable=0;strokeColor=inherit;overflow=hidden;fillColor=none;top=0;left=0;bottom=0;right=0;pointerEvents=1;fontSize=16;" parent="DEw6KJjrD6QTIvw1O1RF-214" vertex="1">
          <mxGeometry width="187" height="510" as="geometry">
            <mxRectangle width="187" height="510" as="alternateBounds" />
          </mxGeometry>
        </mxCell>
        <mxCell id="DEw6KJjrD6QTIvw1O1RF-216" value="" style="shape=partialRectangle;html=1;whiteSpace=wrap;connectable=0;strokeColor=inherit;overflow=hidden;fillColor=none;top=0;left=0;bottom=0;right=0;pointerEvents=1;fontSize=16;" parent="DEw6KJjrD6QTIvw1O1RF-214" vertex="1">
          <mxGeometry x="187" width="186" height="510" as="geometry">
            <mxRectangle width="186" height="510" as="alternateBounds" />
          </mxGeometry>
        </mxCell>
        <mxCell id="DEw6KJjrD6QTIvw1O1RF-217" value="" style="shape=partialRectangle;html=1;whiteSpace=wrap;connectable=0;strokeColor=inherit;overflow=hidden;fillColor=none;top=0;left=0;bottom=0;right=0;pointerEvents=1;fontSize=16;" parent="DEw6KJjrD6QTIvw1O1RF-214" vertex="1">
          <mxGeometry x="373" width="187" height="510" as="geometry">
            <mxRectangle width="187" height="510" as="alternateBounds" />
          </mxGeometry>
        </mxCell>
        <mxCell id="DEw6KJjrD6QTIvw1O1RF-218" value="Login with credentials" style="rounded=0;whiteSpace=wrap;html=1;" parent="DEw6KJjrD6QTIvw1O1RF-262" vertex="1">
          <mxGeometry x="60" y="100" width="70" height="30" as="geometry" />
        </mxCell>
        <mxCell id="DEw6KJjrD6QTIvw1O1RF-219" value="" style="html=1;verticalAlign=bottom;startArrow=oval;startFill=1;endArrow=block;startSize=8;curved=0;rounded=0;fontSize=12;entryX=0.568;entryY=-0.017;entryDx=0;entryDy=0;entryPerimeter=0;" parent="DEw6KJjrD6QTIvw1O1RF-262" target="DEw6KJjrD6QTIvw1O1RF-218" edge="1">
          <mxGeometry width="60" relative="1" as="geometry">
            <mxPoint x="18" y="80" as="sourcePoint" />
            <mxPoint x="97" y="100" as="targetPoint" />
            <Array as="points">
              <mxPoint x="100" y="80" />
            </Array>
          </mxGeometry>
        </mxCell>
        <mxCell id="DEw6KJjrD6QTIvw1O1RF-220" value="" style="html=1;verticalAlign=bottom;endArrow=block;curved=0;rounded=0;fontSize=12;startSize=8;endSize=8;" parent="DEw6KJjrD6QTIvw1O1RF-262" source="DEw6KJjrD6QTIvw1O1RF-218" target="DEw6KJjrD6QTIvw1O1RF-221" edge="1">
          <mxGeometry width="80" relative="1" as="geometry">
            <mxPoint x="130" y="114.82000000000005" as="sourcePoint" />
            <mxPoint x="210" y="114.82000000000005" as="targetPoint" />
          </mxGeometry>
        </mxCell>
        <mxCell id="DEw6KJjrD6QTIvw1O1RF-221" value="Verify&lt;div&gt;credentials&lt;/div&gt;" style="rounded=0;whiteSpace=wrap;html=1;" parent="DEw6KJjrD6QTIvw1O1RF-262" vertex="1">
          <mxGeometry x="480" y="100" width="70" height="30" as="geometry" />
        </mxCell>
        <mxCell id="DEw6KJjrD6QTIvw1O1RF-222" value="" style="rhombus;whiteSpace=wrap;html=1;" parent="DEw6KJjrD6QTIvw1O1RF-262" vertex="1">
          <mxGeometry x="506.75" y="180" width="16.5" height="20" as="geometry" />
        </mxCell>
        <mxCell id="DEw6KJjrD6QTIvw1O1RF-223" value="" style="html=1;verticalAlign=bottom;endArrow=block;curved=0;rounded=0;fontSize=12;startSize=8;endSize=8;" parent="DEw6KJjrD6QTIvw1O1RF-262" source="DEw6KJjrD6QTIvw1O1RF-221" target="DEw6KJjrD6QTIvw1O1RF-222" edge="1">
          <mxGeometry width="80" relative="1" as="geometry">
            <mxPoint x="140" y="125" as="sourcePoint" />
            <mxPoint x="440" y="125" as="targetPoint" />
          </mxGeometry>
        </mxCell>
        <mxCell id="DEw6KJjrD6QTIvw1O1RF-224" value="do they exist?" style="edgeLabel;html=1;align=center;verticalAlign=middle;resizable=0;points=[];fontSize=12;" parent="DEw6KJjrD6QTIvw1O1RF-223" vertex="1" connectable="0">
          <mxGeometry x="-0.293" y="1" relative="1" as="geometry">
            <mxPoint as="offset" />
          </mxGeometry>
        </mxCell>
        <mxCell id="DEw6KJjrD6QTIvw1O1RF-225" value="" style="html=1;verticalAlign=bottom;endArrow=block;curved=0;rounded=0;fontSize=12;startSize=8;endSize=8;" parent="DEw6KJjrD6QTIvw1O1RF-262" source="DEw6KJjrD6QTIvw1O1RF-222" target="DEw6KJjrD6QTIvw1O1RF-316" edge="1">
          <mxGeometry width="80" relative="1" as="geometry">
            <mxPoint x="150" y="135" as="sourcePoint" />
            <mxPoint x="465" y="240" as="targetPoint" />
          </mxGeometry>
        </mxCell>
        <mxCell id="DEw6KJjrD6QTIvw1O1RF-226" value="no" style="edgeLabel;html=1;align=center;verticalAlign=middle;resizable=0;points=[];fontSize=12;" parent="DEw6KJjrD6QTIvw1O1RF-225" vertex="1" connectable="0">
          <mxGeometry x="0.503" y="-2" relative="1" as="geometry">
            <mxPoint x="2" y="-20" as="offset" />
          </mxGeometry>
        </mxCell>
        <mxCell id="DEw6KJjrD6QTIvw1O1RF-227" value="" style="html=1;verticalAlign=bottom;endArrow=block;curved=0;rounded=0;fontSize=12;startSize=8;endSize=8;" parent="DEw6KJjrD6QTIvw1O1RF-262" source="DEw6KJjrD6QTIvw1O1RF-222" target="DEw6KJjrD6QTIvw1O1RF-230" edge="1">
          <mxGeometry width="80" relative="1" as="geometry">
            <mxPoint x="483" y="200" as="sourcePoint" />
            <mxPoint x="660.4255319148938" y="160" as="targetPoint" />
          </mxGeometry>
        </mxCell>
        <mxCell id="DEw6KJjrD6QTIvw1O1RF-228" value="yes" style="edgeLabel;html=1;align=center;verticalAlign=middle;resizable=0;points=[];fontSize=12;" parent="DEw6KJjrD6QTIvw1O1RF-227" vertex="1" connectable="0">
          <mxGeometry x="0.0962" y="-1" relative="1" as="geometry">
            <mxPoint x="152" y="1" as="offset" />
          </mxGeometry>
        </mxCell>
        <mxCell id="DEw6KJjrD6QTIvw1O1RF-230" value="Login successful" style="rounded=0;whiteSpace=wrap;html=1;" parent="DEw6KJjrD6QTIvw1O1RF-262" vertex="1">
          <mxGeometry x="30" y="175" width="70" height="30" as="geometry" />
        </mxCell>
        <mxCell id="DEw6KJjrD6QTIvw1O1RF-231" value="" style="endArrow=classic;html=1;rounded=0;fontSize=12;startSize=8;endSize=8;curved=1;" parent="DEw6KJjrD6QTIvw1O1RF-262" source="DEw6KJjrD6QTIvw1O1RF-241" target="DEw6KJjrD6QTIvw1O1RF-233" edge="1">
          <mxGeometry width="50" height="50" relative="1" as="geometry">
            <mxPoint x="70" y="310" as="sourcePoint" />
            <mxPoint x="-20" y="160" as="targetPoint" />
          </mxGeometry>
        </mxCell>
        <mxCell id="DEw6KJjrD6QTIvw1O1RF-232" value="yes" style="edgeLabel;html=1;align=center;verticalAlign=middle;resizable=0;points=[];fontSize=12;" parent="DEw6KJjrD6QTIvw1O1RF-231" vertex="1" connectable="0">
          <mxGeometry x="-0.2996" y="-1" relative="1" as="geometry">
            <mxPoint as="offset" />
          </mxGeometry>
        </mxCell>
        <mxCell id="DEw6KJjrD6QTIvw1O1RF-233" value="Assign visit to Dentist" style="rounded=0;whiteSpace=wrap;html=1;" parent="DEw6KJjrD6QTIvw1O1RF-262" vertex="1">
          <mxGeometry x="110" y="250" width="70" height="30" as="geometry" />
        </mxCell>
        <mxCell id="DEw6KJjrD6QTIvw1O1RF-234" value="" style="endArrow=classic;html=1;rounded=0;fontSize=12;startSize=8;endSize=8;curved=1;" parent="DEw6KJjrD6QTIvw1O1RF-262" source="DEw6KJjrD6QTIvw1O1RF-233" target="DEw6KJjrD6QTIvw1O1RF-235" edge="1">
          <mxGeometry width="50" height="50" relative="1" as="geometry">
            <mxPoint x="105" y="215" as="sourcePoint" />
            <mxPoint x="-20" y="270" as="targetPoint" />
          </mxGeometry>
        </mxCell>
        <mxCell id="DEw6KJjrD6QTIvw1O1RF-235" value="Generate new visit" style="rounded=0;whiteSpace=wrap;html=1;" parent="DEw6KJjrD6QTIvw1O1RF-262" vertex="1">
          <mxGeometry x="245" y="250" width="70" height="30" as="geometry" />
        </mxCell>
        <mxCell id="DEw6KJjrD6QTIvw1O1RF-236" value="" style="rhombus;whiteSpace=wrap;html=1;" parent="DEw6KJjrD6QTIvw1O1RF-262" vertex="1">
          <mxGeometry x="380" y="245" width="16.5" height="20" as="geometry" />
        </mxCell>
        <mxCell id="DEw6KJjrD6QTIvw1O1RF-237" value="" style="html=1;verticalAlign=bottom;endArrow=block;curved=0;rounded=0;fontSize=12;startSize=8;endSize=8;" parent="DEw6KJjrD6QTIvw1O1RF-262" source="DEw6KJjrD6QTIvw1O1RF-316" target="DEw6KJjrD6QTIvw1O1RF-236" edge="1">
          <mxGeometry width="80" relative="1" as="geometry">
            <mxPoint x="430" y="255" as="sourcePoint" />
            <mxPoint x="475" y="250" as="targetPoint" />
          </mxGeometry>
        </mxCell>
        <mxCell id="DEw6KJjrD6QTIvw1O1RF-317" value="Try again?" style="edgeLabel;html=1;align=center;verticalAlign=middle;resizable=0;points=[];fontSize=12;" parent="DEw6KJjrD6QTIvw1O1RF-237" vertex="1" connectable="0">
          <mxGeometry x="-0.2557" relative="1" as="geometry">
            <mxPoint as="offset" />
          </mxGeometry>
        </mxCell>
        <mxCell id="DEw6KJjrD6QTIvw1O1RF-238" value="" style="html=1;verticalAlign=bottom;endArrow=block;curved=0;rounded=0;fontSize=12;startSize=8;endSize=8;entryX=0.432;entryY=1.004;entryDx=0;entryDy=0;entryPerimeter=0;" parent="DEw6KJjrD6QTIvw1O1RF-262" source="DEw6KJjrD6QTIvw1O1RF-236" target="DEw6KJjrD6QTIvw1O1RF-218" edge="1">
          <mxGeometry width="80" relative="1" as="geometry">
            <mxPoint x="440" y="265" as="sourcePoint" />
            <mxPoint x="406" y="265" as="targetPoint" />
            <Array as="points">
              <mxPoint x="390" y="160" />
              <mxPoint x="90" y="160" />
            </Array>
          </mxGeometry>
        </mxCell>
        <mxCell id="DEw6KJjrD6QTIvw1O1RF-318" value="yes" style="edgeLabel;html=1;align=center;verticalAlign=middle;resizable=0;points=[];fontSize=12;" parent="DEw6KJjrD6QTIvw1O1RF-238" vertex="1" connectable="0">
          <mxGeometry x="-0.9083" relative="1" as="geometry">
            <mxPoint as="offset" />
          </mxGeometry>
        </mxCell>
        <mxCell id="DEw6KJjrD6QTIvw1O1RF-239" value="" style="endArrow=classic;html=1;rounded=0;fontSize=12;startSize=8;endSize=8;curved=1;" parent="DEw6KJjrD6QTIvw1O1RF-262" source="DEw6KJjrD6QTIvw1O1RF-230" target="DEw6KJjrD6QTIvw1O1RF-241" edge="1">
          <mxGeometry width="50" height="50" relative="1" as="geometry">
            <mxPoint x="95" y="205" as="sourcePoint" />
            <mxPoint x="95" y="360" as="targetPoint" />
          </mxGeometry>
        </mxCell>
        <mxCell id="DEw6KJjrD6QTIvw1O1RF-240" value="Assign a visit?" style="edgeLabel;html=1;align=center;verticalAlign=middle;resizable=0;points=[];fontSize=12;" parent="DEw6KJjrD6QTIvw1O1RF-239" vertex="1" connectable="0">
          <mxGeometry x="-0.2413" relative="1" as="geometry">
            <mxPoint as="offset" />
          </mxGeometry>
        </mxCell>
        <mxCell id="DEw6KJjrD6QTIvw1O1RF-241" value="" style="rhombus;whiteSpace=wrap;html=1;" parent="DEw6KJjrD6QTIvw1O1RF-262" vertex="1">
          <mxGeometry x="56.75" y="250" width="16.5" height="20" as="geometry" />
        </mxCell>
        <mxCell id="DEw6KJjrD6QTIvw1O1RF-243" value="" style="html=1;verticalAlign=bottom;endArrow=block;curved=0;rounded=0;fontSize=12;startSize=8;endSize=8;" parent="DEw6KJjrD6QTIvw1O1RF-262" source="DEw6KJjrD6QTIvw1O1RF-235" edge="1">
          <mxGeometry width="80" relative="1" as="geometry">
            <mxPoint x="399" y="255" as="sourcePoint" />
            <mxPoint x="430" y="310" as="targetPoint" />
            <Array as="points">
              <mxPoint x="280" y="310" />
            </Array>
          </mxGeometry>
        </mxCell>
        <mxCell id="DEw6KJjrD6QTIvw1O1RF-244" value="" style="endArrow=classic;html=1;rounded=0;fontSize=12;startSize=8;endSize=8;curved=1;" parent="DEw6KJjrD6QTIvw1O1RF-262" source="DEw6KJjrD6QTIvw1O1RF-249" target="DEw6KJjrD6QTIvw1O1RF-246" edge="1">
          <mxGeometry width="50" height="50" relative="1" as="geometry">
            <mxPoint x="83" y="275" as="sourcePoint" />
            <mxPoint x="-20" y="300" as="targetPoint" />
          </mxGeometry>
        </mxCell>
        <mxCell id="DEw6KJjrD6QTIvw1O1RF-245" value="yes" style="edgeLabel;html=1;align=center;verticalAlign=middle;resizable=0;points=[];fontSize=12;" parent="DEw6KJjrD6QTIvw1O1RF-244" vertex="1" connectable="0">
          <mxGeometry x="-0.2181" y="-1" relative="1" as="geometry">
            <mxPoint as="offset" />
          </mxGeometry>
        </mxCell>
        <mxCell id="DEw6KJjrD6QTIvw1O1RF-246" value="Create a new bill after a visit" style="rounded=0;whiteSpace=wrap;html=1;" parent="DEw6KJjrD6QTIvw1O1RF-262" vertex="1">
          <mxGeometry x="110" y="337.5" width="70" height="45" as="geometry" />
        </mxCell>
        <mxCell id="DEw6KJjrD6QTIvw1O1RF-247" value="" style="endArrow=classic;html=1;rounded=0;fontSize=12;startSize=8;endSize=8;curved=1;" parent="DEw6KJjrD6QTIvw1O1RF-262" source="DEw6KJjrD6QTIvw1O1RF-241" target="DEw6KJjrD6QTIvw1O1RF-249" edge="1">
          <mxGeometry width="50" height="50" relative="1" as="geometry">
            <mxPoint x="65" y="275" as="sourcePoint" />
            <mxPoint x="65" y="360" as="targetPoint" />
          </mxGeometry>
        </mxCell>
        <mxCell id="DEw6KJjrD6QTIvw1O1RF-248" value="Create a bill?" style="edgeLabel;html=1;align=center;verticalAlign=middle;resizable=0;points=[];fontSize=12;" parent="DEw6KJjrD6QTIvw1O1RF-247" vertex="1" connectable="0">
          <mxGeometry x="-0.2996" y="-1" relative="1" as="geometry">
            <mxPoint x="9" y="12" as="offset" />
          </mxGeometry>
        </mxCell>
        <mxCell id="DEw6KJjrD6QTIvw1O1RF-249" value="" style="rhombus;whiteSpace=wrap;html=1;" parent="DEw6KJjrD6QTIvw1O1RF-262" vertex="1">
          <mxGeometry x="56.75" y="350" width="16.5" height="20" as="geometry" />
        </mxCell>
        <mxCell id="DEw6KJjrD6QTIvw1O1RF-250" value="" style="endArrow=classic;html=1;rounded=0;fontSize=12;startSize=8;endSize=8;curved=1;" parent="DEw6KJjrD6QTIvw1O1RF-262" source="DEw6KJjrD6QTIvw1O1RF-249" target="DEw6KJjrD6QTIvw1O1RF-252" edge="1">
          <mxGeometry width="50" height="50" relative="1" as="geometry">
            <mxPoint x="64.85000000000002" y="350" as="sourcePoint" />
            <mxPoint x="64.85000000000002" y="405" as="targetPoint" />
          </mxGeometry>
        </mxCell>
        <mxCell id="DEw6KJjrD6QTIvw1O1RF-251" value="no" style="edgeLabel;html=1;align=center;verticalAlign=middle;resizable=0;points=[];fontSize=12;" parent="DEw6KJjrD6QTIvw1O1RF-250" vertex="1" connectable="0">
          <mxGeometry x="-0.2996" y="-1" relative="1" as="geometry">
            <mxPoint as="offset" />
          </mxGeometry>
        </mxCell>
        <mxCell id="DEw6KJjrD6QTIvw1O1RF-252" value="End session" style="rounded=0;whiteSpace=wrap;html=1;" parent="DEw6KJjrD6QTIvw1O1RF-262" vertex="1">
          <mxGeometry x="30" y="490" width="70" height="30" as="geometry" />
        </mxCell>
        <mxCell id="DEw6KJjrD6QTIvw1O1RF-253" value="" style="endArrow=classic;html=1;rounded=0;fontSize=12;startSize=8;endSize=8;curved=1;" parent="DEw6KJjrD6QTIvw1O1RF-262" source="DEw6KJjrD6QTIvw1O1RF-252" target="DEw6KJjrD6QTIvw1O1RF-254" edge="1">
          <mxGeometry width="50" height="50" relative="1" as="geometry">
            <mxPoint x="109.70000000000005" y="410" as="sourcePoint" />
            <mxPoint x="-40" y="450" as="targetPoint" />
          </mxGeometry>
        </mxCell>
        <mxCell id="DEw6KJjrD6QTIvw1O1RF-254" value="" style="ellipse;whiteSpace=wrap;html=1;aspect=fixed;fillColor=#f8cecc;strokeColor=#b85450;" parent="DEw6KJjrD6QTIvw1O1RF-262" vertex="1">
          <mxGeometry x="55" y="540" width="20" height="20" as="geometry" />
        </mxCell>
        <mxCell id="DEw6KJjrD6QTIvw1O1RF-255" value="" style="endArrow=classic;html=1;rounded=0;fontSize=12;startSize=8;endSize=8;curved=1;" parent="DEw6KJjrD6QTIvw1O1RF-262" source="DEw6KJjrD6QTIvw1O1RF-246" target="DEw6KJjrD6QTIvw1O1RF-256" edge="1">
          <mxGeometry width="50" height="50" relative="1" as="geometry">
            <mxPoint x="220" y="360" as="sourcePoint" />
            <mxPoint x="-60" y="360" as="targetPoint" />
          </mxGeometry>
        </mxCell>
        <mxCell id="DEw6KJjrD6QTIvw1O1RF-256" value="Generate bill info" style="rounded=0;whiteSpace=wrap;html=1;" parent="DEw6KJjrD6QTIvw1O1RF-262" vertex="1">
          <mxGeometry x="245" y="345" width="70" height="30" as="geometry" />
        </mxCell>
        <mxCell id="DEw6KJjrD6QTIvw1O1RF-257" value="" style="html=1;verticalAlign=bottom;endArrow=block;curved=0;rounded=0;fontSize=12;startSize=8;endSize=8;entryX=0.003;entryY=0.335;entryDx=0;entryDy=0;entryPerimeter=0;" parent="DEw6KJjrD6QTIvw1O1RF-262" source="DEw6KJjrD6QTIvw1O1RF-256" target="DEw6KJjrD6QTIvw1O1RF-258" edge="1">
          <mxGeometry width="80" relative="1" as="geometry">
            <mxPoint x="399" y="255" as="sourcePoint" />
            <mxPoint x="620" y="470" as="targetPoint" />
            <Array as="points">
              <mxPoint x="280" y="410" />
            </Array>
          </mxGeometry>
        </mxCell>
        <mxCell id="DEw6KJjrD6QTIvw1O1RF-258" value="New bill saved" style="rounded=0;whiteSpace=wrap;html=1;" parent="DEw6KJjrD6QTIvw1O1RF-262" vertex="1">
          <mxGeometry x="430" y="400" width="70" height="30" as="geometry" />
        </mxCell>
        <mxCell id="DEw6KJjrD6QTIvw1O1RF-259" value="" style="html=1;verticalAlign=bottom;endArrow=block;curved=0;rounded=0;fontSize=12;startSize=8;endSize=8;" parent="DEw6KJjrD6QTIvw1O1RF-262" source="DEw6KJjrD6QTIvw1O1RF-258" target="DEw6KJjrD6QTIvw1O1RF-241" edge="1">
          <mxGeometry width="80" relative="1" as="geometry">
            <mxPoint x="290" y="385" as="sourcePoint" />
            <mxPoint x="-20" y="270" as="targetPoint" />
            <Array as="points">
              <mxPoint x="465" y="460" />
              <mxPoint x="30" y="460" />
              <mxPoint x="30" y="260" />
            </Array>
          </mxGeometry>
        </mxCell>
        <mxCell id="DEw6KJjrD6QTIvw1O1RF-260" value="" style="html=1;verticalAlign=bottom;endArrow=block;curved=0;rounded=0;fontSize=12;startSize=8;endSize=8;" parent="DEw6KJjrD6QTIvw1O1RF-262" target="DEw6KJjrD6QTIvw1O1RF-241" edge="1">
          <mxGeometry width="80" relative="1" as="geometry">
            <mxPoint x="500" y="310" as="sourcePoint" />
            <mxPoint x="68" y="274" as="targetPoint" />
            <Array as="points">
              <mxPoint x="530" y="310" />
              <mxPoint x="530" y="460" />
              <mxPoint x="30" y="460" />
              <mxPoint x="30" y="260" />
            </Array>
          </mxGeometry>
        </mxCell>
        <mxCell id="DEw6KJjrD6QTIvw1O1RF-316" value="Access denied" style="rounded=0;whiteSpace=wrap;html=1;" parent="DEw6KJjrD6QTIvw1O1RF-262" vertex="1">
          <mxGeometry x="480" y="235" width="70" height="40" as="geometry" />
        </mxCell>
        <mxCell id="DEw6KJjrD6QTIvw1O1RF-319" value="" style="html=1;verticalAlign=bottom;endArrow=block;curved=0;rounded=0;fontSize=12;startSize=8;endSize=8;entryX=0.989;entryY=0.348;entryDx=0;entryDy=0;entryPerimeter=0;" parent="DEw6KJjrD6QTIvw1O1RF-262" source="DEw6KJjrD6QTIvw1O1RF-236" target="DEw6KJjrD6QTIvw1O1RF-252" edge="1">
          <mxGeometry width="80" relative="1" as="geometry">
            <mxPoint x="290" y="290" as="sourcePoint" />
            <mxPoint x="440" y="320" as="targetPoint" />
            <Array as="points">
              <mxPoint x="390" y="500" />
            </Array>
          </mxGeometry>
        </mxCell>
        <mxCell id="DEw6KJjrD6QTIvw1O1RF-320" value="no" style="edgeLabel;html=1;align=center;verticalAlign=middle;resizable=0;points=[];fontSize=12;" parent="DEw6KJjrD6QTIvw1O1RF-319" vertex="1" connectable="0">
          <mxGeometry x="-0.9485" y="1" relative="1" as="geometry">
            <mxPoint x="-1" y="11" as="offset" />
          </mxGeometry>
        </mxCell>
        <mxCell id="DEw6KJjrD6QTIvw1O1RF-315" value="Save visit information" style="rounded=0;whiteSpace=wrap;html=1;" parent="DEw6KJjrD6QTIvw1O1RF-339" vertex="1">
          <mxGeometry x="430" y="290" width="70" height="40" as="geometry" />
        </mxCell>
        <mxCell id="DEw6KJjrD6QTIvw1O1RF-340" value="" style="group" parent="1" vertex="1" connectable="0">
          <mxGeometry x="570" y="1100" width="560" height="560" as="geometry" />
        </mxCell>
        <mxCell id="DEw6KJjrD6QTIvw1O1RF-341" value="" style="group" parent="DEw6KJjrD6QTIvw1O1RF-340" vertex="1" connectable="0">
          <mxGeometry x="-10" width="560" height="560" as="geometry" />
        </mxCell>
        <mxCell id="DEw6KJjrD6QTIvw1O1RF-342" value="Login to interact with the system as an Apprentice Dentist" style="shape=table;startSize=30;container=1;collapsible=0;childLayout=tableLayout;strokeColor=default;fontSize=16;" parent="DEw6KJjrD6QTIvw1O1RF-341" vertex="1">
          <mxGeometry width="560" height="570" as="geometry" />
        </mxCell>
        <mxCell id="DEw6KJjrD6QTIvw1O1RF-343" value="" style="shape=tableRow;horizontal=0;startSize=0;swimlaneHead=0;swimlaneBody=0;strokeColor=inherit;top=0;left=0;bottom=0;right=0;collapsible=0;dropTarget=0;fillColor=none;points=[[0,0.5],[1,0.5]];portConstraint=eastwest;fontSize=16;" parent="DEw6KJjrD6QTIvw1O1RF-342" vertex="1">
          <mxGeometry y="30" width="560" height="40" as="geometry" />
        </mxCell>
        <mxCell id="DEw6KJjrD6QTIvw1O1RF-344" value="&lt;span style=&quot;text-wrap: nowrap;&quot;&gt;Apprentice Dentist&lt;/span&gt;" style="shape=partialRectangle;html=1;whiteSpace=wrap;connectable=0;strokeColor=inherit;overflow=hidden;fillColor=none;top=0;left=0;bottom=0;right=0;pointerEvents=1;fontSize=16;" parent="DEw6KJjrD6QTIvw1O1RF-343" vertex="1">
          <mxGeometry width="187" height="40" as="geometry">
            <mxRectangle width="187" height="40" as="alternateBounds" />
          </mxGeometry>
        </mxCell>
        <mxCell id="DEw6KJjrD6QTIvw1O1RF-345" value="System" style="shape=partialRectangle;html=1;whiteSpace=wrap;connectable=0;strokeColor=inherit;overflow=hidden;fillColor=none;top=0;left=0;bottom=0;right=0;pointerEvents=1;fontSize=16;" parent="DEw6KJjrD6QTIvw1O1RF-343" vertex="1">
          <mxGeometry x="187" width="186" height="40" as="geometry">
            <mxRectangle width="186" height="40" as="alternateBounds" />
          </mxGeometry>
        </mxCell>
        <mxCell id="DEw6KJjrD6QTIvw1O1RF-346" value="Database" style="shape=partialRectangle;html=1;whiteSpace=wrap;connectable=0;strokeColor=inherit;overflow=hidden;fillColor=none;top=0;left=0;bottom=0;right=0;pointerEvents=1;fontSize=16;" parent="DEw6KJjrD6QTIvw1O1RF-343" vertex="1">
          <mxGeometry x="373" width="187" height="40" as="geometry">
            <mxRectangle width="187" height="40" as="alternateBounds" />
          </mxGeometry>
        </mxCell>
        <mxCell id="DEw6KJjrD6QTIvw1O1RF-347" value="" style="shape=tableRow;horizontal=0;startSize=0;swimlaneHead=0;swimlaneBody=0;strokeColor=inherit;top=0;left=0;bottom=0;right=0;collapsible=0;dropTarget=0;fillColor=none;points=[[0,0.5],[1,0.5]];portConstraint=eastwest;fontSize=16;" parent="DEw6KJjrD6QTIvw1O1RF-342" vertex="1">
          <mxGeometry y="70" width="560" height="500" as="geometry" />
        </mxCell>
        <mxCell id="DEw6KJjrD6QTIvw1O1RF-348" value="" style="shape=partialRectangle;html=1;whiteSpace=wrap;connectable=0;strokeColor=inherit;overflow=hidden;fillColor=none;top=0;left=0;bottom=0;right=0;pointerEvents=1;fontSize=16;" parent="DEw6KJjrD6QTIvw1O1RF-347" vertex="1">
          <mxGeometry width="187" height="500" as="geometry">
            <mxRectangle width="187" height="500" as="alternateBounds" />
          </mxGeometry>
        </mxCell>
        <mxCell id="DEw6KJjrD6QTIvw1O1RF-349" value="" style="shape=partialRectangle;html=1;whiteSpace=wrap;connectable=0;strokeColor=inherit;overflow=hidden;fillColor=none;top=0;left=0;bottom=0;right=0;pointerEvents=1;fontSize=16;" parent="DEw6KJjrD6QTIvw1O1RF-347" vertex="1">
          <mxGeometry x="187" width="186" height="500" as="geometry">
            <mxRectangle width="186" height="500" as="alternateBounds" />
          </mxGeometry>
        </mxCell>
        <mxCell id="DEw6KJjrD6QTIvw1O1RF-350" value="" style="shape=partialRectangle;html=1;whiteSpace=wrap;connectable=0;strokeColor=inherit;overflow=hidden;fillColor=none;top=0;left=0;bottom=0;right=0;pointerEvents=1;fontSize=16;" parent="DEw6KJjrD6QTIvw1O1RF-347" vertex="1">
          <mxGeometry x="373" width="187" height="500" as="geometry">
            <mxRectangle width="187" height="500" as="alternateBounds" />
          </mxGeometry>
        </mxCell>
        <mxCell id="DEw6KJjrD6QTIvw1O1RF-351" value="Login with credentials" style="rounded=0;whiteSpace=wrap;html=1;" parent="DEw6KJjrD6QTIvw1O1RF-341" vertex="1">
          <mxGeometry x="60" y="100" width="70" height="30" as="geometry" />
        </mxCell>
        <mxCell id="DEw6KJjrD6QTIvw1O1RF-352" value="" style="html=1;verticalAlign=bottom;startArrow=oval;startFill=1;endArrow=block;startSize=8;curved=0;rounded=0;fontSize=12;entryX=0.568;entryY=-0.017;entryDx=0;entryDy=0;entryPerimeter=0;" parent="DEw6KJjrD6QTIvw1O1RF-341" target="DEw6KJjrD6QTIvw1O1RF-351" edge="1">
          <mxGeometry width="60" relative="1" as="geometry">
            <mxPoint x="18" y="80" as="sourcePoint" />
            <mxPoint x="97" y="100" as="targetPoint" />
            <Array as="points">
              <mxPoint x="100" y="80" />
            </Array>
          </mxGeometry>
        </mxCell>
        <mxCell id="DEw6KJjrD6QTIvw1O1RF-353" value="" style="html=1;verticalAlign=bottom;endArrow=block;curved=0;rounded=0;fontSize=12;startSize=8;endSize=8;" parent="DEw6KJjrD6QTIvw1O1RF-341" source="DEw6KJjrD6QTIvw1O1RF-351" target="DEw6KJjrD6QTIvw1O1RF-354" edge="1">
          <mxGeometry width="80" relative="1" as="geometry">
            <mxPoint x="130" y="114.82000000000005" as="sourcePoint" />
            <mxPoint x="210" y="114.82000000000005" as="targetPoint" />
          </mxGeometry>
        </mxCell>
        <mxCell id="DEw6KJjrD6QTIvw1O1RF-354" value="Verifies credentials" style="rounded=0;whiteSpace=wrap;html=1;" parent="DEw6KJjrD6QTIvw1O1RF-341" vertex="1">
          <mxGeometry x="480" y="100" width="70" height="30" as="geometry" />
        </mxCell>
        <mxCell id="DEw6KJjrD6QTIvw1O1RF-355" value="" style="rhombus;whiteSpace=wrap;html=1;" parent="DEw6KJjrD6QTIvw1O1RF-341" vertex="1">
          <mxGeometry x="506.75" y="180" width="16.5" height="20" as="geometry" />
        </mxCell>
        <mxCell id="DEw6KJjrD6QTIvw1O1RF-356" value="" style="html=1;verticalAlign=bottom;endArrow=block;curved=0;rounded=0;fontSize=12;startSize=8;endSize=8;" parent="DEw6KJjrD6QTIvw1O1RF-341" source="DEw6KJjrD6QTIvw1O1RF-354" target="DEw6KJjrD6QTIvw1O1RF-355" edge="1">
          <mxGeometry width="80" relative="1" as="geometry">
            <mxPoint x="140" y="125" as="sourcePoint" />
            <mxPoint x="440" y="125" as="targetPoint" />
          </mxGeometry>
        </mxCell>
        <mxCell id="DEw6KJjrD6QTIvw1O1RF-357" value="Do they exist?" style="edgeLabel;html=1;align=center;verticalAlign=middle;resizable=0;points=[];fontSize=12;" parent="DEw6KJjrD6QTIvw1O1RF-356" vertex="1" connectable="0">
          <mxGeometry x="-0.293" y="1" relative="1" as="geometry">
            <mxPoint as="offset" />
          </mxGeometry>
        </mxCell>
        <mxCell id="DEw6KJjrD6QTIvw1O1RF-358" value="" style="html=1;verticalAlign=bottom;endArrow=block;curved=0;rounded=0;fontSize=12;startSize=8;endSize=8;" parent="DEw6KJjrD6QTIvw1O1RF-341" source="DEw6KJjrD6QTIvw1O1RF-355" target="DEw6KJjrD6QTIvw1O1RF-394" edge="1">
          <mxGeometry width="80" relative="1" as="geometry">
            <mxPoint x="150" y="135" as="sourcePoint" />
            <mxPoint x="465" y="240" as="targetPoint" />
          </mxGeometry>
        </mxCell>
        <mxCell id="DEw6KJjrD6QTIvw1O1RF-359" value="no" style="edgeLabel;html=1;align=center;verticalAlign=middle;resizable=0;points=[];fontSize=12;" parent="DEw6KJjrD6QTIvw1O1RF-358" vertex="1" connectable="0">
          <mxGeometry x="0.503" y="-2" relative="1" as="geometry">
            <mxPoint x="2" y="-20" as="offset" />
          </mxGeometry>
        </mxCell>
        <mxCell id="DEw6KJjrD6QTIvw1O1RF-360" value="" style="html=1;verticalAlign=bottom;endArrow=block;curved=0;rounded=0;fontSize=12;startSize=8;endSize=8;" parent="DEw6KJjrD6QTIvw1O1RF-341" source="DEw6KJjrD6QTIvw1O1RF-355" target="DEw6KJjrD6QTIvw1O1RF-362" edge="1">
          <mxGeometry width="80" relative="1" as="geometry">
            <mxPoint x="483" y="200" as="sourcePoint" />
            <mxPoint x="660.4255319148938" y="160" as="targetPoint" />
          </mxGeometry>
        </mxCell>
        <mxCell id="DEw6KJjrD6QTIvw1O1RF-361" value="yes" style="edgeLabel;html=1;align=center;verticalAlign=middle;resizable=0;points=[];fontSize=12;" parent="DEw6KJjrD6QTIvw1O1RF-360" vertex="1" connectable="0">
          <mxGeometry x="0.0962" y="-1" relative="1" as="geometry">
            <mxPoint x="152" y="1" as="offset" />
          </mxGeometry>
        </mxCell>
        <mxCell id="DEw6KJjrD6QTIvw1O1RF-362" value="Login successful" style="rounded=0;whiteSpace=wrap;html=1;" parent="DEw6KJjrD6QTIvw1O1RF-341" vertex="1">
          <mxGeometry x="30" y="175" width="70" height="30" as="geometry" />
        </mxCell>
        <mxCell id="DEw6KJjrD6QTIvw1O1RF-363" value="" style="endArrow=classic;html=1;rounded=0;fontSize=12;startSize=8;endSize=8;curved=1;" parent="DEw6KJjrD6QTIvw1O1RF-341" source="DEw6KJjrD6QTIvw1O1RF-375" target="DEw6KJjrD6QTIvw1O1RF-365" edge="1">
          <mxGeometry width="50" height="50" relative="1" as="geometry">
            <mxPoint x="70" y="310" as="sourcePoint" />
            <mxPoint x="-20" y="160" as="targetPoint" />
          </mxGeometry>
        </mxCell>
        <mxCell id="DEw6KJjrD6QTIvw1O1RF-364" value="yes" style="edgeLabel;html=1;align=center;verticalAlign=middle;resizable=0;points=[];fontSize=12;" parent="DEw6KJjrD6QTIvw1O1RF-363" vertex="1" connectable="0">
          <mxGeometry x="-0.2996" y="-1" relative="1" as="geometry">
            <mxPoint as="offset" />
          </mxGeometry>
        </mxCell>
        <mxCell id="DEw6KJjrD6QTIvw1O1RF-365" value="View assigned operations" style="rounded=0;whiteSpace=wrap;html=1;" parent="DEw6KJjrD6QTIvw1O1RF-341" vertex="1">
          <mxGeometry x="110" y="255" width="70" height="50" as="geometry" />
        </mxCell>
        <mxCell id="DEw6KJjrD6QTIvw1O1RF-366" value="" style="endArrow=classic;html=1;rounded=0;fontSize=12;startSize=8;endSize=8;curved=1;" parent="DEw6KJjrD6QTIvw1O1RF-341" source="DEw6KJjrD6QTIvw1O1RF-365" target="DEw6KJjrD6QTIvw1O1RF-367" edge="1">
          <mxGeometry width="50" height="50" relative="1" as="geometry">
            <mxPoint x="105" y="215" as="sourcePoint" />
            <mxPoint x="-20" y="270" as="targetPoint" />
          </mxGeometry>
        </mxCell>
        <mxCell id="DEw6KJjrD6QTIvw1O1RF-367" value="Retrieve infromation" style="rounded=0;whiteSpace=wrap;html=1;" parent="DEw6KJjrD6QTIvw1O1RF-341" vertex="1">
          <mxGeometry x="245" y="265" width="70" height="30" as="geometry" />
        </mxCell>
        <mxCell id="DEw6KJjrD6QTIvw1O1RF-368" value="" style="rhombus;whiteSpace=wrap;html=1;" parent="DEw6KJjrD6QTIvw1O1RF-341" vertex="1">
          <mxGeometry x="380" y="245" width="16.5" height="20" as="geometry" />
        </mxCell>
        <mxCell id="DEw6KJjrD6QTIvw1O1RF-369" value="" style="html=1;verticalAlign=bottom;endArrow=block;curved=0;rounded=0;fontSize=12;startSize=8;endSize=8;" parent="DEw6KJjrD6QTIvw1O1RF-341" source="DEw6KJjrD6QTIvw1O1RF-394" target="DEw6KJjrD6QTIvw1O1RF-368" edge="1">
          <mxGeometry width="80" relative="1" as="geometry">
            <mxPoint x="430" y="255" as="sourcePoint" />
            <mxPoint x="475" y="250" as="targetPoint" />
          </mxGeometry>
        </mxCell>
        <mxCell id="DEw6KJjrD6QTIvw1O1RF-370" value="Try again?" style="edgeLabel;html=1;align=center;verticalAlign=middle;resizable=0;points=[];fontSize=12;" parent="DEw6KJjrD6QTIvw1O1RF-369" vertex="1" connectable="0">
          <mxGeometry x="-0.2557" relative="1" as="geometry">
            <mxPoint as="offset" />
          </mxGeometry>
        </mxCell>
        <mxCell id="DEw6KJjrD6QTIvw1O1RF-371" value="" style="html=1;verticalAlign=bottom;endArrow=block;curved=0;rounded=0;fontSize=12;startSize=8;endSize=8;entryX=0.432;entryY=1.004;entryDx=0;entryDy=0;entryPerimeter=0;" parent="DEw6KJjrD6QTIvw1O1RF-341" source="DEw6KJjrD6QTIvw1O1RF-368" target="DEw6KJjrD6QTIvw1O1RF-351" edge="1">
          <mxGeometry width="80" relative="1" as="geometry">
            <mxPoint x="440" y="265" as="sourcePoint" />
            <mxPoint x="406" y="265" as="targetPoint" />
            <Array as="points">
              <mxPoint x="390" y="160" />
              <mxPoint x="90" y="160" />
            </Array>
          </mxGeometry>
        </mxCell>
        <mxCell id="DEw6KJjrD6QTIvw1O1RF-372" value="yes" style="edgeLabel;html=1;align=center;verticalAlign=middle;resizable=0;points=[];fontSize=12;" parent="DEw6KJjrD6QTIvw1O1RF-371" vertex="1" connectable="0">
          <mxGeometry x="-0.9083" relative="1" as="geometry">
            <mxPoint as="offset" />
          </mxGeometry>
        </mxCell>
        <mxCell id="DEw6KJjrD6QTIvw1O1RF-373" value="" style="endArrow=classic;html=1;rounded=0;fontSize=12;startSize=8;endSize=8;curved=1;" parent="DEw6KJjrD6QTIvw1O1RF-341" source="DEw6KJjrD6QTIvw1O1RF-362" target="DEw6KJjrD6QTIvw1O1RF-375" edge="1">
          <mxGeometry width="50" height="50" relative="1" as="geometry">
            <mxPoint x="95" y="205" as="sourcePoint" />
            <mxPoint x="95" y="360" as="targetPoint" />
          </mxGeometry>
        </mxCell>
        <mxCell id="DEw6KJjrD6QTIvw1O1RF-374" value="View assigned&amp;nbsp;&lt;div&gt;operations?&lt;/div&gt;" style="edgeLabel;html=1;align=center;verticalAlign=middle;resizable=0;points=[];fontSize=12;" parent="DEw6KJjrD6QTIvw1O1RF-373" vertex="1" connectable="0">
          <mxGeometry x="-0.2413" relative="1" as="geometry">
            <mxPoint as="offset" />
          </mxGeometry>
        </mxCell>
        <mxCell id="DEw6KJjrD6QTIvw1O1RF-375" value="" style="rhombus;whiteSpace=wrap;html=1;" parent="DEw6KJjrD6QTIvw1O1RF-341" vertex="1">
          <mxGeometry x="56.75" y="265" width="16.5" height="20" as="geometry" />
        </mxCell>
        <mxCell id="DEw6KJjrD6QTIvw1O1RF-380" value="" style="endArrow=classic;html=1;rounded=0;fontSize=12;startSize=8;endSize=8;curved=1;" parent="DEw6KJjrD6QTIvw1O1RF-341" source="DEw6KJjrD6QTIvw1O1RF-375" target="DEw6KJjrD6QTIvw1O1RF-385" edge="1">
          <mxGeometry width="50" height="50" relative="1" as="geometry">
            <mxPoint x="65" y="275" as="sourcePoint" />
            <mxPoint x="65" y="410" as="targetPoint" />
          </mxGeometry>
        </mxCell>
        <mxCell id="DEw6KJjrD6QTIvw1O1RF-453" value="no" style="edgeLabel;html=1;align=center;verticalAlign=middle;resizable=0;points=[];fontSize=12;" parent="DEw6KJjrD6QTIvw1O1RF-380" vertex="1" connectable="0">
          <mxGeometry x="-0.7798" relative="1" as="geometry">
            <mxPoint as="offset" />
          </mxGeometry>
        </mxCell>
        <mxCell id="DEw6KJjrD6QTIvw1O1RF-385" value="End session" style="rounded=0;whiteSpace=wrap;html=1;" parent="DEw6KJjrD6QTIvw1O1RF-341" vertex="1">
          <mxGeometry x="30" y="490" width="70" height="30" as="geometry" />
        </mxCell>
        <mxCell id="DEw6KJjrD6QTIvw1O1RF-386" value="" style="endArrow=classic;html=1;rounded=0;fontSize=12;startSize=8;endSize=8;curved=1;" parent="DEw6KJjrD6QTIvw1O1RF-341" source="DEw6KJjrD6QTIvw1O1RF-385" target="DEw6KJjrD6QTIvw1O1RF-387" edge="1">
          <mxGeometry width="50" height="50" relative="1" as="geometry">
            <mxPoint x="109.70000000000005" y="410" as="sourcePoint" />
            <mxPoint x="-40" y="450" as="targetPoint" />
          </mxGeometry>
        </mxCell>
        <mxCell id="DEw6KJjrD6QTIvw1O1RF-387" value="" style="ellipse;whiteSpace=wrap;html=1;aspect=fixed;fillColor=#f8cecc;strokeColor=#b85450;" parent="DEw6KJjrD6QTIvw1O1RF-341" vertex="1">
          <mxGeometry x="55" y="540" width="20" height="20" as="geometry" />
        </mxCell>
        <mxCell id="DEw6KJjrD6QTIvw1O1RF-394" value="Access denied" style="rounded=0;whiteSpace=wrap;html=1;" parent="DEw6KJjrD6QTIvw1O1RF-341" vertex="1">
          <mxGeometry x="480" y="235" width="70" height="40" as="geometry" />
        </mxCell>
        <mxCell id="DEw6KJjrD6QTIvw1O1RF-395" value="" style="html=1;verticalAlign=bottom;endArrow=block;curved=0;rounded=0;fontSize=12;startSize=8;endSize=8;entryX=0.989;entryY=0.348;entryDx=0;entryDy=0;entryPerimeter=0;" parent="DEw6KJjrD6QTIvw1O1RF-341" source="DEw6KJjrD6QTIvw1O1RF-368" target="DEw6KJjrD6QTIvw1O1RF-385" edge="1">
          <mxGeometry width="80" relative="1" as="geometry">
            <mxPoint x="290" y="290" as="sourcePoint" />
            <mxPoint x="440" y="320" as="targetPoint" />
            <Array as="points">
              <mxPoint x="390" y="500" />
            </Array>
          </mxGeometry>
        </mxCell>
        <mxCell id="DEw6KJjrD6QTIvw1O1RF-396" value="no" style="edgeLabel;html=1;align=center;verticalAlign=middle;resizable=0;points=[];fontSize=12;" parent="DEw6KJjrD6QTIvw1O1RF-395" vertex="1" connectable="0">
          <mxGeometry x="-0.9485" y="1" relative="1" as="geometry">
            <mxPoint x="-1" y="11" as="offset" />
          </mxGeometry>
        </mxCell>
        <mxCell id="DEw6KJjrD6QTIvw1O1RF-449" value="Display infromation" style="rounded=0;whiteSpace=wrap;html=1;" parent="DEw6KJjrD6QTIvw1O1RF-341" vertex="1">
          <mxGeometry x="245" y="340" width="70" height="30" as="geometry" />
        </mxCell>
        <mxCell id="DEw6KJjrD6QTIvw1O1RF-452" value="" style="html=1;verticalAlign=bottom;endArrow=block;curved=0;rounded=0;fontSize=12;startSize=8;endSize=8;entryX=0;entryY=1;entryDx=0;entryDy=0;exitX=0.004;exitY=0.336;exitDx=0;exitDy=0;exitPerimeter=0;" parent="DEw6KJjrD6QTIvw1O1RF-341" source="DEw6KJjrD6QTIvw1O1RF-449" target="DEw6KJjrD6QTIvw1O1RF-375" edge="1">
          <mxGeometry width="80" relative="1" as="geometry">
            <mxPoint x="-170" y="330" as="sourcePoint" />
            <mxPoint x="-70" y="340" as="targetPoint" />
            <Array as="points">
              <mxPoint x="20" y="350" />
              <mxPoint x="20" y="280" />
            </Array>
          </mxGeometry>
        </mxCell>
        <mxCell id="DEw6KJjrD6QTIvw1O1RF-397" value="Information found" style="rounded=0;whiteSpace=wrap;html=1;" parent="DEw6KJjrD6QTIvw1O1RF-340" vertex="1">
          <mxGeometry x="430" y="290" width="70" height="40" as="geometry" />
        </mxCell>
        <mxCell id="DEw6KJjrD6QTIvw1O1RF-393" value="" style="html=1;verticalAlign=bottom;endArrow=block;curved=0;rounded=0;fontSize=12;startSize=8;endSize=8;" parent="DEw6KJjrD6QTIvw1O1RF-340" source="DEw6KJjrD6QTIvw1O1RF-397" target="DEw6KJjrD6QTIvw1O1RF-449" edge="1">
          <mxGeometry width="80" relative="1" as="geometry">
            <mxPoint x="500" y="310" as="sourcePoint" />
            <mxPoint x="-30" y="350" as="targetPoint" />
            <Array as="points">
              <mxPoint x="465" y="410" />
              <mxPoint x="270" y="410" />
            </Array>
          </mxGeometry>
        </mxCell>
        <mxCell id="DEw6KJjrD6QTIvw1O1RF-376" value="" style="html=1;verticalAlign=bottom;endArrow=block;curved=0;rounded=0;fontSize=12;startSize=8;endSize=8;" parent="DEw6KJjrD6QTIvw1O1RF-340" source="DEw6KJjrD6QTIvw1O1RF-367" target="DEw6KJjrD6QTIvw1O1RF-397" edge="1">
          <mxGeometry width="80" relative="1" as="geometry">
            <mxPoint x="389" y="255" as="sourcePoint" />
            <mxPoint x="420" y="310" as="targetPoint" />
            <Array as="points">
              <mxPoint x="270" y="310" />
            </Array>
          </mxGeometry>
        </mxCell>
        <mxCell id="DEw6KJjrD6QTIvw1O1RF-126" value="Login to interact with the system as a Patient" style="shape=table;startSize=30;container=1;collapsible=0;childLayout=tableLayout;strokeColor=default;fontSize=16;" parent="1" vertex="1">
          <mxGeometry x="180" y="340" width="560" height="700" as="geometry" />
        </mxCell>
        <mxCell id="DEw6KJjrD6QTIvw1O1RF-127" value="" style="shape=tableRow;horizontal=0;startSize=0;swimlaneHead=0;swimlaneBody=0;strokeColor=inherit;top=0;left=0;bottom=0;right=0;collapsible=0;dropTarget=0;fillColor=none;points=[[0,0.5],[1,0.5]];portConstraint=eastwest;fontSize=16;" parent="DEw6KJjrD6QTIvw1O1RF-126" vertex="1">
          <mxGeometry y="30" width="560" height="40" as="geometry" />
        </mxCell>
        <mxCell id="DEw6KJjrD6QTIvw1O1RF-128" value="Patient" style="shape=partialRectangle;html=1;whiteSpace=wrap;connectable=0;strokeColor=inherit;overflow=hidden;fillColor=none;top=0;left=0;bottom=0;right=0;pointerEvents=1;fontSize=16;" parent="DEw6KJjrD6QTIvw1O1RF-127" vertex="1">
          <mxGeometry width="187" height="40" as="geometry">
            <mxRectangle width="187" height="40" as="alternateBounds" />
          </mxGeometry>
        </mxCell>
        <mxCell id="DEw6KJjrD6QTIvw1O1RF-129" value="System" style="shape=partialRectangle;html=1;whiteSpace=wrap;connectable=0;strokeColor=inherit;overflow=hidden;fillColor=none;top=0;left=0;bottom=0;right=0;pointerEvents=1;fontSize=16;" parent="DEw6KJjrD6QTIvw1O1RF-127" vertex="1">
          <mxGeometry x="187" width="186" height="40" as="geometry">
            <mxRectangle width="186" height="40" as="alternateBounds" />
          </mxGeometry>
        </mxCell>
        <mxCell id="DEw6KJjrD6QTIvw1O1RF-130" value="Database" style="shape=partialRectangle;html=1;whiteSpace=wrap;connectable=0;strokeColor=inherit;overflow=hidden;fillColor=none;top=0;left=0;bottom=0;right=0;pointerEvents=1;fontSize=16;" parent="DEw6KJjrD6QTIvw1O1RF-127" vertex="1">
          <mxGeometry x="373" width="187" height="40" as="geometry">
            <mxRectangle width="187" height="40" as="alternateBounds" />
          </mxGeometry>
        </mxCell>
        <mxCell id="DEw6KJjrD6QTIvw1O1RF-135" value="" style="shape=tableRow;horizontal=0;startSize=0;swimlaneHead=0;swimlaneBody=0;strokeColor=inherit;top=0;left=0;bottom=0;right=0;collapsible=0;dropTarget=0;fillColor=none;points=[[0,0.5],[1,0.5]];portConstraint=eastwest;fontSize=16;" parent="DEw6KJjrD6QTIvw1O1RF-126" vertex="1">
          <mxGeometry y="70" width="560" height="630" as="geometry" />
        </mxCell>
        <mxCell id="DEw6KJjrD6QTIvw1O1RF-136" value="" style="shape=partialRectangle;html=1;whiteSpace=wrap;connectable=0;strokeColor=inherit;overflow=hidden;fillColor=none;top=0;left=0;bottom=0;right=0;pointerEvents=1;fontSize=16;" parent="DEw6KJjrD6QTIvw1O1RF-135" vertex="1">
          <mxGeometry width="187" height="630" as="geometry">
            <mxRectangle width="187" height="630" as="alternateBounds" />
          </mxGeometry>
        </mxCell>
        <mxCell id="DEw6KJjrD6QTIvw1O1RF-137" value="" style="shape=partialRectangle;html=1;whiteSpace=wrap;connectable=0;strokeColor=inherit;overflow=hidden;fillColor=none;top=0;left=0;bottom=0;right=0;pointerEvents=1;fontSize=16;" parent="DEw6KJjrD6QTIvw1O1RF-135" vertex="1">
          <mxGeometry x="187" width="186" height="630" as="geometry">
            <mxRectangle width="186" height="630" as="alternateBounds" />
          </mxGeometry>
        </mxCell>
        <mxCell id="DEw6KJjrD6QTIvw1O1RF-138" value="" style="shape=partialRectangle;html=1;whiteSpace=wrap;connectable=0;strokeColor=inherit;overflow=hidden;fillColor=none;top=0;left=0;bottom=0;right=0;pointerEvents=1;fontSize=16;" parent="DEw6KJjrD6QTIvw1O1RF-135" vertex="1">
          <mxGeometry x="373" width="187" height="630" as="geometry">
            <mxRectangle width="187" height="630" as="alternateBounds" />
          </mxGeometry>
        </mxCell>
      </root>
    </mxGraphModel>
  </diagram>
</mxfile>
